<svg xmlns="http://www.w3.org/2000/svg" width="66" height="32.789" viewBox="0 0 66 32.789">
  <g id="Group_2" data-name="Group 2" transform="translate(-133 -77)">
    <g id="Group_1" data-name="Group 1" transform="translate(133 77)">
      <path id="Path_1" data-name="Path 1" d="M55.8,78.89c-2.42,0-4.147-1.537-5.405-2.659-.8-.711-1.482-1.322-2.036-1.325h-.635l.036-.635A10.308,10.308,0,0,1,58.045,64.54q.321,0,.635.018h.215l.157.145c1.7,1.564,1.73,3.3.1,5.142a21.482,21.482,0,0,1-2.232,2.087,9.511,9.511,0,0,0-2.377,2.492.98.98,0,0,0-.015.974A3.058,3.058,0,0,0,56,76.47a6.786,6.786,0,0,1,1.654.934h.082l.366.472-.194.747h-.36a4.614,4.614,0,0,1-1.561.254Z" transform="translate(-44.115 -60.182)" fill="#ccd33d"/>
      <path id="Path_2" data-name="Path 2" d="M58.128,84.041a10.308,10.308,0,0,1-10.3-9.946l-.021-.644.644.018c.7.018,1.382.629,2.247,1.4,1.286,1.146,2.883,2.571,5.172,2.571h.181a4.07,4.07,0,0,0,1.54-.272c.115-.06.181-.124.2-.188s.024-.1-.1-.248a5,5,0,0,0-1.748-1.062,3.487,3.487,0,0,1-1.458-1.047,1.385,1.385,0,0,1-.139-1.431,9.21,9.21,0,0,1,2.462-2.61,21.408,21.408,0,0,0,2.187-2.045c1.343-1.531,1.512-2.722.6-3.932l-.95-1.27,1.555.3a10.248,10.248,0,0,1,4.165,1.875l.336.254-.786,2.6.835.835,1.225-2.223.557.783A10.237,10.237,0,0,1,68.194,71.5l.1.457-.414.209c-1.609.817-1.664,1.279-1.766,2.117-.112.907-.263,2.184-2.961,4.434a7.772,7.772,0,0,0-1.875,2.066,3.408,3.408,0,0,0-.384,2.3l.094.578-.557.127A10.356,10.356,0,0,1,58.128,84.041Z" transform="translate(-44.189 -59.069)" fill="#73ddcd"/>
      <path id="Path_3" data-name="Path 3" d="M252.385,21.041l.511-1.691-2.166-2.039-2.39,4.31-1.292-1.292,1.534-5.048-1.839-1.733a1.237,1.237,0,0,1-.318-1.391,1.55,1.55,0,0,1,.82-.82h.03a1.238,1.238,0,0,1,.442-.082,1.257,1.257,0,0,1,.907.411l1.73,1.836,5.054-1.528,1.292,1.292-4.31,2.38,2.039,2.163,1.694-.511,1.05,1.05-2.054,1.14-.366.181-.166.339-1.165,2.081Z" transform="translate(-227.705 -10.927)" fill="#fff"/>
      <path id="Path_4" data-name="Path 4" d="M215.54,183.852a3.742,3.742,0,0,1,.442-2.42,8.079,8.079,0,0,1,1.978-2.166c2.6-2.166,2.722-3.3,2.843-4.22.1-.826.278-1.467,1.688-2.241l.783-.43.1.889a10.456,10.456,0,0,1,.076,1.264,10.242,10.242,0,0,1-3.025,7.29,10.354,10.354,0,0,1-4.086,2.511l-.687.224Z" transform="translate(-199.2 -159.863)" fill="#ccd33d"/>
      <path id="Path_5" data-name="Path 5" d="M52.622,321.914a.454.454,0,0,0,0,.641,11.544,11.544,0,0,0,.944.856.454.454,0,1,0,.642-.641.431.431,0,0,0-.037-.033l-.03-.024c-.3-.251-.6-.52-.883-.8a.453.453,0,0,0-.635,0Z" transform="translate(-48.52 -297.973)" fill="#2b1b19"/>
      <path id="Path_6" data-name="Path 6" d="M1.613,158.092h.057a.454.454,0,0,0,.451-.4c.048-.393.115-.789.2-1.174a.454.454,0,1,0-.874-.19c-.091.414-.16.835-.212,1.255a.454.454,0,0,0,.378.508Z" transform="translate(-1.138 -144.63)" fill="#2b1b19"/>
      <path id="Path_7" data-name="Path 7" d="M25.376,286.588a.454.454,0,0,0-.158.622h0c.218.363.454.72.7,1.062a.454.454,0,0,0,.732-.535c-.233-.321-.454-.653-.656-.992a.454.454,0,0,0-.622-.158Z" transform="translate(-23.252 -265.379)" fill="#2b1b19"/>
      <path id="Path_8" data-name="Path 8" d="M7.317,245.624a.454.454,0,0,0-.3.563c.121.405.26.811.417,1.21a.461.461,0,1,0,.856-.342h0c-.145-.366-.278-.744-.39-1.125a.454.454,0,0,0-.563-.3Z" transform="translate(-6.467 -227.557)" fill="#2b1b19"/>
      <path id="Path_9" data-name="Path 9" d="M12.607,116.751a.454.454,0,0,0,.59-.253h0a10.872,10.872,0,0,1,.487-1.086.454.454,0,1,0-.811-.408h0c-.191.378-.366.768-.52,1.165A.454.454,0,0,0,12.607,116.751Z" transform="translate(-11.391 -106.598)" fill="#2b1b19"/>
      <path id="Path_10" data-name="Path 10" d="M.536,203.651H.611A.454.454,0,0,0,1,203.144a0,0,0,0,0,0,0H1c-.048-.393-.082-.792-.1-1.186a.454.454,0,1,0-.907.033,9.921,9.921,0,0,0,.1,1.27.454.454,0,0,0,.433.39Z" transform="translate(0 -186.803)" fill="#2b1b19"/>
      <path id="Path_11" data-name="Path 11" d="M143.757,18.431h.088c.39-.076.786-.133,1.18-.172a.457.457,0,1,0-.088-.907c-.42.042-.844.1-1.261.185a.457.457,0,1,0,.023.913.468.468,0,0,0,.062-.006Z" transform="translate(-132.399 -16.556)" fill="#2b1b19"/>
      <path id="Path_12" data-name="Path 12" d="M33.955,79.257a.453.453,0,0,0,.369-.188c.233-.321.481-.635.741-.932a.457.457,0,0,0-.661-.631l-.023.026a10.835,10.835,0,0,0-.792,1,.454.454,0,0,0,.366.72Z" transform="translate(-30.969 -72.037)" fill="#2b1b19"/>
      <path id="Path_13" data-name="Path 13" d="M190.406,17.686h.07a.455.455,0,0,0,.067-.907c-.417-.064-.844-.109-1.267-.133a.455.455,0,1,0-.054.907C189.619,17.584,190.016,17.626,190.406,17.686Z" transform="translate(-174.516 -15.909)" fill="#2b1b19"/>
      <path id="Path_14" data-name="Path 14" d="M64.781,49.563c.3-.254.623-.5.95-.72a.454.454,0,0,0-.514-.747c-.348.239-.69.5-1.016.768a.454.454,0,0,0,.581.7Z" transform="translate(-59.194 -44.914)" fill="#2b1b19"/>
      <path id="Path_15" data-name="Path 15" d="M102.261,28.626a.452.452,0,0,0,.194-.045c.357-.169.726-.324,1.1-.46a.454.454,0,0,0-.239-.874l-.064.021a11.3,11.3,0,0,0-1.174.493.454.454,0,0,0,.194.865Z" transform="translate(-94.115 -25.699)" fill="#2b1b19"/>
      <path id="Path_16" data-name="Path 16" d="M173.7,373.032a.454.454,0,0,0-.024.907h.378c.3,0,.6,0,.889-.027a.455.455,0,0,0-.057-.907A11.236,11.236,0,0,1,173.7,373.032Z" transform="translate(-160.138 -345.32)" fill="#2b1b19"/>
      <path id="Path_17" data-name="Path 17" d="M346.707,241.207a.454.454,0,0,0,.58-.274v0h0c.142-.4.266-.808.372-1.21a.454.454,0,0,0-.866-.272.514.514,0,0,0-.014.061c-.1.384-.215.765-.348,1.137a.454.454,0,0,0,.276.56Z" transform="translate(-320.216 -221.571)" fill="#2b1b19"/>
      <path id="Path_18" data-name="Path 18" d="M351.52,152.279h.076a.454.454,0,0,0,.375-.52c-.07-.417-.157-.838-.263-1.246a.454.454,0,0,0-.877.23c.1.381.181.774.248,1.165A.454.454,0,0,0,351.52,152.279Z" transform="translate(-324.291 -139.355)" fill="#2b1b19"/>
      <path id="Path_19" data-name="Path 19" d="M67.125,7.676,62.306,9.134,60.685,7.413a1.467,1.467,0,0,0-1.67-.4h-.027a1.785,1.785,0,0,0-.971.971,1.64,1.64,0,0,0-.1.357l-.185-.064a.454.454,0,1,0-.278.865h0c.233.076.466.16.7.248a1.733,1.733,0,0,0,.245.3l1.715,1.621-.49,1.618h0a10.66,10.66,0,1,0,2.253,2.172l.774-1.4,1.8,1.694-.433,1.431a.439.439,0,0,0,.1.448s.886.877.907.907a.439.439,0,0,0,.6-.153l0-.007h0l1.183-2.169L68.948,14.7a.442.442,0,0,0,.13-.711l-.8-.844a.439.439,0,0,0-.439-.109l-1.446.439-1.694-1.8,3.8-2.117a.442.442,0,0,0,.13-.711L67.569,7.779a.442.442,0,0,0-.444-.1ZM46.58,14.7a9.713,9.713,0,0,1,6.881-2.843q.3,0,.6.018c1.715,1.582,1.21,3.025.06,4.325a21.218,21.218,0,0,1-2.178,2.008,9.558,9.558,0,0,0-2.55,2.722c-.466,1.053-.124,2.005,1.757,2.837a4.945,4.945,0,0,1,1.652.986c.027.033.054,0,.048,0a.182.182,0,0,0-.06.015,3.759,3.759,0,0,1-1.428.245c-2.281.1-3.9-1.361-5.166-2.489-.907-.808-1.661-1.479-2.444-1.485A9.713,9.713,0,0,1,46.58,14.7Zm16.636,6.89a9.752,9.752,0,0,1-6.73,9.265,3.174,3.174,0,0,1,.372-2.06,7.5,7.5,0,0,1,1.815-2c2.792-2.329,2.949-3.63,3.07-4.631.076-.632.133-1.1,1.382-1.791a9.867,9.867,0,0,1,.076,1.21Zm-.566-3.273a9.664,9.664,0,0,1,.333,1.165c-1.9.968-1.987,1.658-2.1,2.6-.1.847-.236,1.954-2.759,4.059A8.271,8.271,0,0,0,56.1,28.387a4.012,4.012,0,0,0-.454,2.7,9.746,9.746,0,0,1-11.912-9.156c.481,0,1.1.572,1.869,1.252,1.385,1.237,3.158,2.816,5.8,2.722a4.542,4.542,0,0,0,1.815-.345.907.907,0,0,0,.5-.569A.865.865,0,0,0,53.5,24.2a5.649,5.649,0,0,0-1.978-1.237c-1.279-.566-1.558-1.116-1.307-1.679a9.407,9.407,0,0,1,2.311-2.42A22.02,22.02,0,0,0,54.8,16.75c1.264-1.44,1.915-3.025.629-4.728a9.682,9.682,0,0,1,3.932,1.788l-.7,2.3a.441.441,0,0,0,.106.448s1.128,1.119,1.165,1.14a.439.439,0,0,0,.6-.153l0-.007h0l.88-1.591a9.73,9.73,0,0,1,1.234,2.374Zm1.125-7.138a.439.439,0,0,0-.182.593l.007.012h0c.018.033,2.332,2.5,2.332,2.5a.439.439,0,0,0,.448.118h0l1.461-.442.227.227-1.361.753-.39.194a.435.435,0,0,0-.2.2h0l-.194.393-.753,1.361-.221-.242.439-1.449a.439.439,0,0,0-.142-.466L62.86,12.685a.439.439,0,0,0-.62,0h0c-.03.033-2.178,3.9-2.178,3.9l-.469-.469,1.464-4.825a.439.439,0,0,0-.142-.469L59,9.056a.629.629,0,0,1-.172-.726.949.949,0,0,1,.493-.49h.015a.629.629,0,0,1,.708.181l1.815,1.918a.439.439,0,0,0,.448.121h0L67.149,8.6l.469.469Z" transform="translate(-39.541 -6.906)" fill="#2b1b19"/>
      <path id="Path_20" data-name="Path 20" d="M327.5,281.024a.454.454,0,0,0-.6.178c-.191.348-.4.69-.623,1.016a.455.455,0,1,0,.744.523c.236-.351.46-.717.665-1.086a.454.454,0,0,0-.16-.62Z" transform="translate(-301.522 -260.248)" fill="#2b1b19"/>
      <path id="Path_21" data-name="Path 21" d="M356.861,195.959c.039-.42.057-.847.057-1.27v-.064a.454.454,0,0,0-.454-.451h0a.454.454,0,0,0-.466.441v.079c0,.4-.018.8-.054,1.192a.454.454,0,0,0,.411.493h.043A.454.454,0,0,0,356.861,195.959Z" transform="translate(-329.027 -180.013)" fill="#2b1b19"/>
      <path id="Path_22" data-name="Path 22" d="M129.325,366.537a.454.454,0,0,0-.3.856h.054c.405.115.823.215,1.24.3h.085a.457.457,0,0,0,.147-.9.47.47,0,0,0-.062-.006A9.338,9.338,0,0,1,129.325,366.537Z" transform="translate(-118.986 -339.318)" fill="#2b1b19"/>
      <path id="Path_23" data-name="Path 23" d="M219.3,364.654a9.035,9.035,0,0,1-1.146.3.454.454,0,1,0,.2.886c.411-.094.826-.209,1.228-.339a.454.454,0,0,0-.281-.862Z" transform="translate(-201.326 -337.574)" fill="#2b1b19"/>
      <path id="Path_24" data-name="Path 24" d="M88.317,348.867a.454.454,0,1,0-.507.752.419.419,0,0,0,.048.028c.366.215.744.414,1.128.6a.455.455,0,1,0,.387-.823C89.012,349.254,88.659,349.061,88.317,348.867Z" transform="translate(-80.984 -322.937)" fill="#2b1b19"/>
      <path id="Path_25" data-name="Path 25" d="M297.683,317.22a11.015,11.015,0,0,1-.853.832.454.454,0,1,0,.6.678c.3-.281.623-.581.907-.889a.454.454,0,1,0-.662-.62Z" transform="translate(-274.243 -293.621)" fill="#2b1b19"/>
      <path id="Path_26" data-name="Path 26" d="M261.059,345.926c-.333.212-.681.411-1.031.6a.454.454,0,1,0,.414.808c.375-.194.747-.408,1.1-.635a.454.454,0,0,0-.466-.777Z" transform="translate(-240.136 -320.24)" fill="#2b1b19"/>
    </g>
    <ellipse id="Ellipse_1" data-name="Ellipse 1" cx="4.688" cy="5.407" rx="4.688" ry="5.407" transform="translate(158.409 95.556) rotate(47)" fill="#fff"/>
    <text id="NiceTrip" transform="translate(155 106)" font-size="10" font-family="SitkaSmall, Sitka Small"><tspan x="0" y="0">NiceTrip</tspan></text>
  </g>
</svg>
