<svg xmlns="http://www.w3.org/2000/svg" width="134" height="32" viewBox="0 0 134 32">
  <g id="Group_1" data-name="Group 1" transform="translate(-362 -97)">
    <g id="Group_1-2" data-name="Group 1" transform="translate(362 97)">
      <path id="Path_1" data-name="Path 1" d="M56.609,80.327c-2.662,0-4.562-1.691-5.946-2.925-.88-.782-1.63-1.454-2.24-1.458h-.7l.04-.7A11.34,11.34,0,0,1,59.079,64.54q.353,0,.7.02h.237l.173.16c1.87,1.721,1.9,3.63.11,5.657a23.633,23.633,0,0,1-2.456,2.3,10.464,10.464,0,0,0-2.615,2.742,1.078,1.078,0,0,0-.016,1.072,3.364,3.364,0,0,0,1.619,1.179,7.465,7.465,0,0,1,1.82,1.028h.09l.4.519-.213.822h-.4a5.076,5.076,0,0,1-1.717.279Z" transform="translate(-43.745 -59.742)" fill="#ccd33d"/>
      <path id="Path_2" data-name="Path 2" d="M59.162,86.115A11.34,11.34,0,0,1,47.83,75.174l-.023-.71.708.02c.77.02,1.52.692,2.472,1.54,1.415,1.261,3.172,2.828,5.69,2.828h.2a4.478,4.478,0,0,0,1.694-.3.4.4,0,0,0,.22-.207c.021-.07.026-.11-.11-.273a5.5,5.5,0,0,0-1.923-1.168,3.836,3.836,0,0,1-1.6-1.152A1.524,1.524,0,0,1,55,74.179a10.133,10.133,0,0,1,2.709-2.871,23.553,23.553,0,0,0,2.406-2.25c1.477-1.684,1.663-2.995.66-4.326l-1.045-1.4,1.711.33a11.274,11.274,0,0,1,4.582,2.063l.37.279-.865,2.86.919.919,1.348-2.446.613.861a11.262,11.262,0,0,1,1.828,4.116l.11.5-.455.23c-1.77.9-1.831,1.407-1.943,2.329-.123,1-.289,2.4-3.258,4.878a8.55,8.55,0,0,0-2.063,2.273,3.749,3.749,0,0,0-.422,2.53l.1.636-.613.14a11.394,11.394,0,0,1-2.534.278Z" transform="translate(-43.818 -58.638)" fill="#73ddcd"/>
      <path id="Path_3" data-name="Path 3" d="M252.991,22.021l.562-1.86-2.383-2.243-2.629,4.742-1.421-1.421,1.688-5.554-2.023-1.907a1.361,1.361,0,0,1-.35-1.53,1.705,1.705,0,0,1,.9-.9h.033a1.362,1.362,0,0,1,.486-.09,1.383,1.383,0,0,1,1,.452l1.9,2.02,5.56-1.681,1.421,1.421L253,16.086l2.243,2.38L257.1,17.9l1.155,1.155L256,20.313l-.4.2-.183.373-1.282,2.289Z" transform="translate(-225.831 -10.891)" fill="#fff"/>
      <path id="Path_4" data-name="Path 4" d="M215.544,185a4.117,4.117,0,0,1,.486-2.662,8.887,8.887,0,0,1,2.176-2.383c2.86-2.383,2.995-3.631,3.128-4.643.11-.909.306-1.614,1.857-2.465l.861-.473.11.978a11.5,11.5,0,0,1,.084,1.391,11.268,11.268,0,0,1-3.328,8.02,11.391,11.391,0,0,1-4.5,2.762l-.756.246Z" transform="translate(-197.559 -158.606)" fill="#ccd33d"/>
      <path id="Path_5" data-name="Path 5" d="M52.635,321.927a.5.5,0,0,0,0,.705,12.7,12.7,0,0,0,1.039.942.5.5,0,1,0,.706-.705.481.481,0,0,0-.041-.036l-.033-.026c-.33-.276-.66-.572-.971-.88a.5.5,0,0,0-.7,0Z" transform="translate(-48.114 -295.585)" fill="#2b1b19"/>
      <path id="Path_6" data-name="Path 6" d="M1.651,158.312h.063a.5.5,0,0,0,.5-.44c.053-.432.127-.868.22-1.292a.5.5,0,1,0-.962-.209c-.1.455-.176.919-.233,1.381a.5.5,0,0,0,.416.559Z" transform="translate(-1.12 -143.498)" fill="#2b1b19"/>
      <path id="Path_7" data-name="Path 7" d="M25.4,286.594a.5.5,0,0,0-.174.684h0c.24.4.5.792.77,1.168a.5.5,0,0,0,.805-.589c-.256-.353-.5-.718-.722-1.091a.5.5,0,0,0-.684-.174Z" transform="translate(-23.053 -263.258)" fill="#2b1b19"/>
      <path id="Path_8" data-name="Path 8" d="M7.349,245.625a.5.5,0,0,0-.33.619c.133.446.286.892.459,1.331a.507.507,0,1,0,.942-.376h0c-.16-.4-.306-.819-.429-1.238a.5.5,0,0,0-.619-.33Z" transform="translate(-6.405 -225.745)" fill="#2b1b19"/>
      <path id="Path_9" data-name="Path 9" d="M12.635,116.951a.5.5,0,0,0,.649-.278h0a11.962,11.962,0,0,1,.536-1.195.5.5,0,1,0-.892-.449h0c-.21.416-.4.845-.572,1.282a.5.5,0,0,0,.279.64Z" transform="translate(-11.289 -105.778)" fill="#2b1b19"/>
      <path id="Path_10" data-name="Path 10" d="M.59,203.866H.673a.5.5,0,0,0,.428-.558h0c-.053-.432-.09-.871-.11-1.3a.5.5,0,1,0-1,.036,10.915,10.915,0,0,0,.11,1.4.5.5,0,0,0,.476.429Z" transform="translate(0.008 -185.327)" fill="#2b1b19"/>
      <path id="Path_11" data-name="Path 11" d="M143.812,18.54h.1c.429-.084.865-.146,1.3-.189a.5.5,0,1,0-.1-1,13.868,13.868,0,0,0-1.387.2.5.5,0,1,0,.025,1,.515.515,0,0,0,.068-.007Z" transform="translate(-131.307 -16.473)" fill="#2b1b19"/>
      <path id="Path_12" data-name="Path 12" d="M34,79.447a.5.5,0,0,0,.406-.207c.256-.353.529-.7.815-1.025a.5.5,0,1,0-.727-.694l-.025.029a11.92,11.92,0,0,0-.871,1.1.5.5,0,0,0,.4.792Z" transform="translate(-30.706 -71.5)" fill="#2b1b19"/>
      <path id="Path_13" data-name="Path 13" d="M190.57,17.79h.077a.5.5,0,0,0,.074-1c-.459-.07-.929-.12-1.394-.146a.5.5,0,1,0-.059,1C189.7,17.678,190.141,17.724,190.57,17.79Z" transform="translate(-173.08 -15.832)" fill="#2b1b19"/>
      <path id="Path_14" data-name="Path 14" d="M64.856,49.717a12.017,12.017,0,0,1,1.045-.792.5.5,0,0,0-.565-.822c-.383.263-.759.55-1.118.845a.5.5,0,0,0,.639.77Z" transform="translate(-58.7 -44.598)" fill="#2b1b19"/>
      <path id="Path_15" data-name="Path 15" d="M102.305,28.765a.5.5,0,0,0,.213-.05c.393-.186.8-.356,1.21-.506a.5.5,0,0,0-.263-.962l-.07.023a12.431,12.431,0,0,0-1.292.542.5.5,0,0,0,.213.952Z" transform="translate(-93.335 -25.541)" fill="#2b1b19"/>
      <path id="Path_16" data-name="Path 16" d="M173.745,373.035a.5.5,0,0,0-.026,1h.416c.33,0,.66,0,.978-.03a.5.5,0,0,0-.063-1,12.359,12.359,0,0,1-1.3.03Z" transform="translate(-158.816 -342.544)" fill="#2b1b19"/>
      <path id="Path_17" data-name="Path 17" d="M346.737,241.414a.5.5,0,0,0,.638-.3h0c.156-.44.293-.889.409-1.331a.5.5,0,0,0-.953-.3.572.572,0,0,0-.015.067c-.11.422-.237.842-.383,1.251a.5.5,0,0,0,.3.616Z" transform="translate(-317.584 -219.808)" fill="#2b1b19"/>
      <path id="Path_18" data-name="Path 18" d="M351.59,152.487h.084a.5.5,0,0,0,.413-.572c-.077-.459-.173-.922-.289-1.371a.5.5,0,0,0-.965.253c.11.419.2.852.273,1.282A.5.5,0,0,0,351.59,152.487Z" transform="translate(-321.625 -138.265)" fill="#2b1b19"/>
      <path id="Path_19" data-name="Path 19" d="M69.564,7.753l-5.3,1.6L62.479,7.464a1.614,1.614,0,0,0-1.837-.44h-.03a1.964,1.964,0,0,0-1.068,1.068,1.8,1.8,0,0,0-.11.393l-.2-.07a.5.5,0,0,0-.306.952h0c.256.084.513.176.77.273a1.906,1.906,0,0,0,.27.33l1.887,1.783-.539,1.78h0a11.728,11.728,0,1,0,2.479,2.39l.852-1.54,1.98,1.864-.476,1.574a.483.483,0,0,0,.11.493s.975.965,1,1a.483.483,0,0,0,.66-.168v-.008h0l1.3-2.386,2.354-1.267a.486.486,0,0,0,.143-.782l-.88-.929a.483.483,0,0,0-.483-.12l-1.591.483-1.864-1.98,4.181-2.329a.486.486,0,0,0,.143-.782L70.052,7.867a.486.486,0,0,0-.488-.11Zm-22.6,7.727a10.686,10.686,0,0,1,7.57-3.128q.33,0,.66.02c1.887,1.74,1.331,3.328.066,4.758a23.343,23.343,0,0,1-2.4,2.209,10.515,10.515,0,0,0-2.805,2.995c-.513,1.158-.136,2.206,1.933,3.121a5.44,5.44,0,0,1,1.817,1.085c.03.036.059,0,.053,0a.2.2,0,0,0-.066.017,4.135,4.135,0,0,1-1.571.27c-2.509.11-4.291-1.5-5.683-2.738-1-.889-1.827-1.627-2.689-1.634a10.686,10.686,0,0,1,3.111-6.974Zm18.3,7.58a10.729,10.729,0,0,1-7.4,10.193,3.492,3.492,0,0,1,.409-2.266,8.251,8.251,0,0,1,2-2.2c3.072-2.562,3.244-3.994,3.377-5.095.084-.7.146-1.21,1.52-1.97a10.857,10.857,0,0,1,.084,1.331Zm-.623-3.6a10.633,10.633,0,0,1,.366,1.282c-2.09,1.065-2.186,1.824-2.31,2.86-.11.932-.26,2.15-3.035,4.465a9.1,9.1,0,0,0-2.227,2.471,4.414,4.414,0,0,0-.5,2.97,10.722,10.722,0,0,1-13.1-10.073c.529,0,1.21.629,2.056,1.377,1.524,1.361,3.474,3.1,6.381,2.995a5,5,0,0,0,2-.38,1,1,0,0,0,.55-.626.952.952,0,0,0-.24-.87A6.215,6.215,0,0,0,52.4,24.571c-1.407-.623-1.714-1.228-1.438-1.847A10.349,10.349,0,0,1,53.5,20.062,24.225,24.225,0,0,0,56,17.736c1.391-1.584,2.107-3.328.692-5.2A10.652,10.652,0,0,1,61.022,14.5l-.77,2.53a.485.485,0,0,0,.117.493s1.241,1.231,1.282,1.254a.483.483,0,0,0,.66-.168V18.6h0l.968-1.75a10.7,10.7,0,0,1,1.358,2.612Zm1.238-7.853a.483.483,0,0,0-.2.652l.008.013h0c.02.036,2.566,2.75,2.566,2.75a.483.483,0,0,0,.493.13h0l1.607-.486.25.25-1.5.828-.429.213a.479.479,0,0,0-.22.22h0l-.213.432-.828,1.5-.243-.266.483-1.594a.483.483,0,0,0-.156-.513l-2.625-2.471a.483.483,0,0,0-.682,0h0c-.033.036-2.4,4.291-2.4,4.291l-.516-.516,1.611-5.308a.483.483,0,0,0-.156-.516L60.625,9.272a.692.692,0,0,1-.189-.8,1.044,1.044,0,0,1,.542-.539h.017a.692.692,0,0,1,.779.2l2,2.11a.483.483,0,0,0,.493.133h0L69.59,8.77l.516.516Z" transform="translate(-39.209 -6.903)" fill="#2b1b19"/>
      <path id="Path_20" data-name="Path 20" d="M327.632,281.029a.5.5,0,0,0-.66.2c-.21.383-.44.759-.685,1.118a.5.5,0,1,0,.818.575c.26-.386.506-.789.732-1.195a.5.5,0,0,0-.176-.682Z" transform="translate(-299.043 -258.169)" fill="#2b1b19"/>
      <path id="Path_21" data-name="Path 21" d="M356.953,196.138c.043-.462.063-.932.063-1.4v-.07a.5.5,0,0,0-.5-.5h0a.5.5,0,0,0-.513.485v.087c0,.44-.02.88-.059,1.311a.5.5,0,0,0,.452.542h.047A.5.5,0,0,0,356.953,196.138Z" transform="translate(-326.323 -178.591)" fill="#2b1b19"/>
      <path id="Path_22" data-name="Path 22" d="M129.383,366.539a.5.5,0,0,0-.33.942h.059c.446.126.905.237,1.364.33h.094a.5.5,0,0,0,.162-.99.527.527,0,0,0-.068-.007,10.28,10.28,0,0,1-1.281-.275Z" transform="translate(-118 -336.59)" fill="#2b1b19"/>
      <path id="Path_23" data-name="Path 23" d="M219.45,364.657a9.944,9.944,0,0,1-1.261.33.5.5,0,1,0,.22.975c.452-.1.909-.23,1.351-.373a.5.5,0,0,0-.309-.948Z" transform="translate(-199.667 -334.861)" fill="#2b1b19"/>
      <path id="Path_24" data-name="Path 24" d="M88.39,348.876a.5.5,0,1,0-.558.827.473.473,0,0,0,.053.031c.4.237.819.455,1.241.66a.5.5,0,1,0,.426-.905C89.154,349.3,88.766,349.089,88.39,348.876Z" transform="translate(-80.313 -320.346)" fill="#2b1b19"/>
      <path id="Path_25" data-name="Path 25" d="M297.786,317.236a12.112,12.112,0,0,1-.938.915.5.5,0,1,0,.66.746c.33-.309.685-.639,1-.978a.5.5,0,1,0-.728-.682Z" transform="translate(-271.99 -291.27)" fill="#2b1b19"/>
      <path id="Path_26" data-name="Path 26" d="M261.187,345.931c-.366.233-.749.452-1.134.66a.5.5,0,1,0,.456.889c.413-.213.822-.449,1.21-.7a.5.5,0,0,0-.513-.855Z" transform="translate(-238.16 -317.669)" fill="#2b1b19"/>
    </g>
    <text id="NiceTrip" transform="translate(395 123)" font-size="23" font-family="SitkaSmall, Sitka Small"><tspan x="0" y="0">NiceTrip</tspan></text>
  </g>
</svg>
